{
	"asset":{
		"generator":"Khronos glTF Blender I/O v3.5.30",
		"version":"2.0"
	},
	"scene":3,
	"scenes":[
		{
			"name":"00 Cauldron",
			"nodes":[
				1
			]
		},
		{
			"name":"01 Mortar",
			"nodes":[
				2
			]
		},
		{
			"name":"02 Pestle",
			"nodes":[
				3
			]
		},
		{
			"name":"03 Table",
			"nodes":[
				4
			]
		}
	],
	"nodes":[
		{
			"mesh":0,
			"name":"Liquid"
		},
		{
			"children":[
				0
			],
			"mesh":1,
			"name":"Cauldron"
		},
		{
			"mesh":2,
			"name":"Mortar"
		},
		{
			"mesh":3,
			"name":"Pestle"
		},
		{
			"mesh":4,
			"name":"Table",
			"translation":[
				0,
				0.47373610734939575,
				0
			]
		}
	],
	"materials":[
		{
			"doubleSided":true,
			"name":"Potion",
			"pbrMetallicRoughness":{
				"baseColorFactor":[
					0.8000000715255737,
					0,
					0.00267806532792747,
					1
				],
				"metallicFactor":0,
				"roughnessFactor":0.5
			}
		},
		{
			"doubleSided":true,
			"name":"Cauldron",
			"pbrMetallicRoughness":{
				"baseColorFactor":[
					0.800000011920929,
					0.800000011920929,
					0.800000011920929,
					1
				],
				"metallicFactor":0,
				"roughnessFactor":0.5
			}
		},
		{
			"doubleSided":true,
			"name":"MortarPestle",
			"pbrMetallicRoughness":{
				"baseColorFactor":[
					0.800000011920929,
					0.800000011920929,
					0.800000011920929,
					1
				],
				"metallicFactor":0,
				"roughnessFactor":0.5
			}
		},
		{
			"doubleSided":true,
			"name":"Table",
			"pbrMetallicRoughness":{
				"baseColorFactor":[
					0.800000011920929,
					0.800000011920929,
					0.800000011920929,
					1
				],
				"metallicFactor":0,
				"roughnessFactor":0.5
			}
		}
	],
	"meshes":[
		{
			"name":"Liquid Mesh",
			"primitives":[
				{
					"attributes":{
						"POSITION":0,
						"TEXCOORD_0":1,
						"NORMAL":2
					},
					"indices":3,
					"material":0
				}
			]
		},
		{
			"name":"Cauldron Mesh",
			"primitives":[
				{
					"attributes":{
						"POSITION":4,
						"TEXCOORD_0":5,
						"NORMAL":6
					},
					"indices":7,
					"material":1
				}
			]
		},
		{
			"name":"Mortar Mesh",
			"primitives":[
				{
					"attributes":{
						"POSITION":8,
						"TEXCOORD_0":9,
						"NORMAL":10
					},
					"indices":11,
					"material":2
				}
			]
		},
		{
			"name":"Pestle Mesh",
			"primitives":[
				{
					"attributes":{
						"POSITION":12,
						"TEXCOORD_0":13,
						"NORMAL":14
					},
					"indices":15,
					"material":2
				}
			]
		},
		{
			"name":"Table Mesh",
			"primitives":[
				{
					"attributes":{
						"POSITION":16,
						"TEXCOORD_0":17,
						"NORMAL":18
					},
					"indices":19,
					"material":3
				}
			]
		}
	],
	"accessors":[
		{
			"bufferView":0,
			"componentType":5126,
			"count":13,
			"max":[
				0.33762890100479126,
				0.5863416790962219,
				0.33762896060943604
			],
			"min":[
				-0.33762890100479126,
				0.5863416790962219,
				-0.33762896060943604
			],
			"type":"VEC3"
		},
		{
			"bufferView":1,
			"componentType":5126,
			"count":13,
			"type":"VEC2"
		},
		{
			"bufferView":2,
			"componentType":5126,
			"count":13,
			"type":"VEC3"
		},
		{
			"bufferView":3,
			"componentType":5123,
			"count":36,
			"type":"SCALAR"
		},
		{
			"bufferView":4,
			"componentType":5126,
			"count":335,
			"max":[
				0.4038929045200348,
				0.6797143220901489,
				0.4038929343223572
			],
			"min":[
				-0.4038929045200348,
				0.0017137735849246383,
				-0.4038929343223572
			],
			"type":"VEC3"
		},
		{
			"bufferView":5,
			"componentType":5126,
			"count":335,
			"type":"VEC2"
		},
		{
			"bufferView":6,
			"componentType":5126,
			"count":335,
			"type":"VEC3"
		},
		{
			"bufferView":7,
			"componentType":5123,
			"count":1548,
			"type":"SCALAR"
		},
		{
			"bufferView":8,
			"componentType":5126,
			"count":190,
			"max":[
				0.21742482483386993,
				0.24149556457996368,
				0.21742482483386993
			],
			"min":[
				-0.21742482483386993,
				0.0012362407287582755,
				-0.21742482483386993
			],
			"type":"VEC3"
		},
		{
			"bufferView":9,
			"componentType":5126,
			"count":190,
			"type":"VEC2"
		},
		{
			"bufferView":10,
			"componentType":5126,
			"count":190,
			"type":"VEC3"
		},
		{
			"bufferView":11,
			"componentType":5123,
			"count":792,
			"type":"SCALAR"
		},
		{
			"bufferView":12,
			"componentType":5126,
			"count":196,
			"max":[
				0.05142096430063248,
				0.39128780364990234,
				0.059423431754112244
			],
			"min":[
				-0.05142096430063248,
				-0.002703946316614747,
				-0.059328094124794006
			],
			"type":"VEC3"
		},
		{
			"bufferView":13,
			"componentType":5126,
			"count":196,
			"type":"VEC2"
		},
		{
			"bufferView":14,
			"componentType":5126,
			"count":196,
			"type":"VEC3"
		},
		{
			"bufferView":15,
			"componentType":5123,
			"count":288,
			"type":"SCALAR"
		},
		{
			"bufferView":16,
			"componentType":5126,
			"count":298,
			"max":[
				1.0570240020751953,
				0.08764948695898056,
				0.5009306073188782
			],
			"min":[
				-1.0570240020751953,
				-0.5231549143791199,
				-0.5009306073188782
			],
			"type":"VEC3"
		},
		{
			"bufferView":17,
			"componentType":5126,
			"count":298,
			"type":"VEC2"
		},
		{
			"bufferView":18,
			"componentType":5126,
			"count":298,
			"type":"VEC3"
		},
		{
			"bufferView":19,
			"componentType":5123,
			"count":576,
			"type":"SCALAR"
		}
	],
	"bufferViews":[
		{
			"buffer":0,
			"byteLength":156,
			"byteOffset":0,
			"target":34962
		},
		{
			"buffer":0,
			"byteLength":104,
			"byteOffset":156,
			"target":34962
		},
		{
			"buffer":0,
			"byteLength":156,
			"byteOffset":260,
			"target":34962
		},
		{
			"buffer":0,
			"byteLength":72,
			"byteOffset":416,
			"target":34963
		},
		{
			"buffer":0,
			"byteLength":4020,
			"byteOffset":488,
			"target":34962
		},
		{
			"buffer":0,
			"byteLength":2680,
			"byteOffset":4508,
			"target":34962
		},
		{
			"buffer":0,
			"byteLength":4020,
			"byteOffset":7188,
			"target":34962
		},
		{
			"buffer":0,
			"byteLength":3096,
			"byteOffset":11208,
			"target":34963
		},
		{
			"buffer":0,
			"byteLength":2280,
			"byteOffset":14304,
			"target":34962
		},
		{
			"buffer":0,
			"byteLength":1520,
			"byteOffset":16584,
			"target":34962
		},
		{
			"buffer":0,
			"byteLength":2280,
			"byteOffset":18104,
			"target":34962
		},
		{
			"buffer":0,
			"byteLength":1584,
			"byteOffset":20384,
			"target":34963
		},
		{
			"buffer":0,
			"byteLength":2352,
			"byteOffset":21968,
			"target":34962
		},
		{
			"buffer":0,
			"byteLength":1568,
			"byteOffset":24320,
			"target":34962
		},
		{
			"buffer":0,
			"byteLength":2352,
			"byteOffset":25888,
			"target":34962
		},
		{
			"buffer":0,
			"byteLength":576,
			"byteOffset":28240,
			"target":34963
		},
		{
			"buffer":0,
			"byteLength":3576,
			"byteOffset":28816,
			"target":34962
		},
		{
			"buffer":0,
			"byteLength":2384,
			"byteOffset":32392,
			"target":34962
		},
		{
			"buffer":0,
			"byteLength":3576,
			"byteOffset":34776,
			"target":34962
		},
		{
			"buffer":0,
			"byteLength":1152,
			"byteOffset":38352,
			"target":34963
		}
	],
	"buffers":[
		{
			"byteLength":39504,
			"uri":"data:application/octet-stream;base64,"
		}
	]
}
