{
	"asset":{
		"generator":"Khronos glTF Blender I/O v3.5.30",
		"version":"2.0"
	},
	"scene":0,
	"scenes":[
		{
			"name":"Scene",
			"nodes":[
				0
			]
		}
	],
	"nodes":[
		{
			"mesh":0,
			"name":"Arrow"
		}
	],
	"meshes":[
		{
			"name":"Arrow Mesh",
			"primitives":[
				{
					"attributes":{
						"POSITION":0,
						"TEXCOORD_0":1,
						"NORMAL":2
					},
					"indices":3
				}
			]
		}
	],
	"accessors":[
		{
			"bufferView":0,
			"componentType":5126,
			"count":54,
			"max":[
				1.16446852684021,
				0.13428756594657898,
				0.5346457958221436
			],
			"min":[
				-1.1644704341888428,
				-0.13428756594657898,
				-3.127194881439209
			],
			"type":"VEC3"
		},
		{
			"bufferView":1,
			"componentType":5126,
			"count":54,
			"type":"VEC2"
		},
		{
			"bufferView":2,
			"componentType":5126,
			"count":54,
			"type":"VEC3"
		},
		{
			"bufferView":3,
			"componentType":5123,
			"count":96,
			"type":"SCALAR"
		}
	],
	"bufferViews":[
		{
			"buffer":0,
			"byteLength":648,
			"byteOffset":0,
			"target":34962
		},
		{
			"buffer":0,
			"byteLength":432,
			"byteOffset":648,
			"target":34962
		},
		{
			"buffer":0,
			"byteLength":648,
			"byteOffset":1080,
			"target":34962
		},
		{
			"buffer":0,
			"byteLength":192,
			"byteOffset":1728,
			"target":34963
		}
	],
	"buffers":[
		{
			"byteLength":1920,
			"uri":"data:application/octet-stream;base64,"
		}
	]
}
