{
	"asset":{
		"generator":"Khronos glTF Blender I/O v3.5.30",
		"version":"2.0"
	},
	"scene":1,
	"scenes":[
		{
			"name":"Backpack Closed",
			"nodes":[
				2
			]
		},
		{
			"name":"Backpack Open",
			"nodes":[
				6
			]
		}
	],
	"nodes":[
		{
			"mesh":0,
			"name":"Buckles"
		},
		{
			"mesh":1,
			"name":"Straps"
		},
		{
			"children":[
				0,
				1
			],
			"mesh":2,
			"name":"Backpack Closed"
		},
		{
			"mesh":3,
			"name":"Backpack Inside"
		},
		{
			"mesh":4,
			"name":"Buckles 2"
		},
		{
			"mesh":5,
			"name":"Straps 2"
		},
		{
			"children":[
				3,
				4,
				5
			],
			"mesh":6,
			"name":"Backpack Open"
		}
	],
	"materials":[
		{
			"doubleSided":true,
			"name":"Buckle",
			"pbrMetallicRoughness":{
				"baseColorFactor":[
					0.7433270215988159,
					0.3063663840293884,
					0.08790256083011627,
					1
				],
				"metallicFactor":0,
				"roughnessFactor":0.5
			}
		},
		{
			"doubleSided":true,
			"name":"Strap",
			"pbrMetallicRoughness":{
				"baseColorFactor":[
					0.04414888098835945,
					0.012577559798955917,
					0,
					1
				],
				"metallicFactor":0,
				"roughnessFactor":0.5
			}
		},
		{
			"doubleSided":true,
			"name":"Leather",
			"pbrMetallicRoughness":{
				"baseColorFactor":[
					0.1473141759634018,
					0.040708038955926895,
					0.007036315277218819,
					1
				],
				"metallicFactor":0,
				"roughnessFactor":0.5
			}
		}
	],
	"meshes":[
		{
			"name":"Buckles Mesh",
			"primitives":[
				{
					"attributes":{
						"POSITION":0,
						"TEXCOORD_0":1,
						"NORMAL":2
					},
					"indices":3,
					"material":0
				}
			]
		},
		{
			"name":"Straps Mesh",
			"primitives":[
				{
					"attributes":{
						"POSITION":4,
						"TEXCOORD_0":5,
						"NORMAL":6
					},
					"indices":7,
					"material":1
				}
			]
		},
		{
			"name":"Backpack Closed Mesh",
			"primitives":[
				{
					"attributes":{
						"POSITION":8,
						"TEXCOORD_0":9,
						"NORMAL":10
					},
					"indices":11,
					"material":2
				}
			]
		},
		{
			"name":"Backpack Inside Mesh",
			"primitives":[
				{
					"attributes":{
						"POSITION":12,
						"TEXCOORD_0":13,
						"NORMAL":14
					},
					"indices":15,
					"material":1
				}
			]
		},
		{
			"name":"Buckles Mesh 2",
			"primitives":[
				{
					"attributes":{
						"POSITION":16,
						"TEXCOORD_0":17,
						"NORMAL":18
					},
					"indices":19,
					"material":0
				}
			]
		},
		{
			"name":"Straps Mesh 2",
			"primitives":[
				{
					"attributes":{
						"POSITION":20,
						"TEXCOORD_0":21,
						"NORMAL":22
					},
					"indices":23,
					"material":1
				}
			]
		},
		{
			"name":"Backpack Open Mesh",
			"primitives":[
				{
					"attributes":{
						"POSITION":24,
						"TEXCOORD_0":25,
						"NORMAL":26
					},
					"indices":27,
					"material":2
				},
				{
					"attributes":{
						"POSITION":28,
						"TEXCOORD_0":29,
						"NORMAL":30
					},
					"indices":31,
					"material":2
				}
			]
		}
	],
	"accessors":[
		{
			"bufferView":0,
			"componentType":5126,
			"count":728,
			"max":[
				0.4028167724609375,
				0.4899473488330841,
				0.26642143726348877
			],
			"min":[
				-0.4028168320655823,
				0.12781938910484314,
				-0.024239905178546906
			],
			"type":"VEC3"
		},
		{
			"bufferView":1,
			"componentType":5126,
			"count":728,
			"type":"VEC2"
		},
		{
			"bufferView":2,
			"componentType":5126,
			"count":728,
			"type":"VEC3"
		},
		{
			"bufferView":3,
			"componentType":5123,
			"count":1710,
			"type":"SCALAR"
		},
		{
			"bufferView":4,
			"componentType":5126,
			"count":528,
			"max":[
				0.39602917432785034,
				0.7122069597244263,
				0.25964075326919556
			],
			"min":[
				-0.3960292339324951,
				0.006083916872739792,
				-0.433088481426239
			],
			"type":"VEC3"
		},
		{
			"bufferView":5,
			"componentType":5126,
			"count":528,
			"type":"VEC2"
		},
		{
			"bufferView":6,
			"componentType":5126,
			"count":528,
			"type":"VEC3"
		},
		{
			"bufferView":7,
			"componentType":5123,
			"count":1512,
			"type":"SCALAR"
		},
		{
			"bufferView":8,
			"componentType":5126,
			"count":296,
			"max":[
				0.38567599654197693,
				0.707237720489502,
				0.25090137124061584
			],
			"min":[
				-0.3856760263442993,
				0.004468074068427086,
				-0.17361989617347717
			],
			"type":"VEC3"
		},
		{
			"bufferView":9,
			"componentType":5126,
			"count":296,
			"type":"VEC2"
		},
		{
			"bufferView":10,
			"componentType":5126,
			"count":296,
			"type":"VEC3"
		},
		{
			"bufferView":11,
			"componentType":5123,
			"count":798,
			"type":"SCALAR"
		},
		{
			"bufferView":12,
			"componentType":5126,
			"count":68,
			"max":[
				0.26192325353622437,
				1.0359241962432861,
				0.17189297080039978
			],
			"min":[
				-0.2619229853153229,
				0.025589914992451668,
				-0.1568266749382019
			],
			"type":"VEC3"
		},
		{
			"bufferView":13,
			"componentType":5126,
			"count":68,
			"type":"VEC2"
		},
		{
			"bufferView":14,
			"componentType":5126,
			"count":68,
			"type":"VEC3"
		},
		{
			"bufferView":15,
			"componentType":5123,
			"count":216,
			"type":"SCALAR"
		},
		{
			"bufferView":16,
			"componentType":5126,
			"count":636,
			"max":[
				0.4028168320655823,
				1.0385932922363281,
				0.036062583327293396
			],
			"min":[
				-0.4028168320655823,
				0.1366405189037323,
				-0.13815873861312866
			],
			"type":"VEC3"
		},
		{
			"bufferView":17,
			"componentType":5126,
			"count":636,
			"type":"VEC2"
		},
		{
			"bufferView":18,
			"componentType":5126,
			"count":636,
			"type":"VEC3"
		},
		{
			"bufferView":19,
			"componentType":5123,
			"count":1368,
			"type":"SCALAR"
		},
		{
			"bufferView":20,
			"componentType":5126,
			"count":452,
			"max":[
				0.3960292339324951,
				1.0838147401809692,
				0.030672170221805573
			],
			"min":[
				-0.39602920413017273,
				0.0060838330537080765,
				-0.4330883026123047
			],
			"type":"VEC3"
		},
		{
			"bufferView":21,
			"componentType":5126,
			"count":452,
			"type":"VEC2"
		},
		{
			"bufferView":22,
			"componentType":5126,
			"count":452,
			"type":"VEC3"
		},
		{
			"bufferView":23,
			"componentType":5123,
			"count":1284,
			"type":"SCALAR"
		},
		{
			"bufferView":24,
			"componentType":5126,
			"count":274,
			"max":[
				0.3856761157512665,
				1.0659568309783936,
				0.17189301550388336
			],
			"min":[
				-0.38567596673965454,
				0.004468035418540239,
				-0.17460167407989502
			],
			"type":"VEC3"
		},
		{
			"bufferView":25,
			"componentType":5126,
			"count":274,
			"type":"VEC2"
		},
		{
			"bufferView":26,
			"componentType":5126,
			"count":274,
			"type":"VEC3"
		},
		{
			"bufferView":27,
			"componentType":5123,
			"count":768,
			"type":"SCALAR"
		},
		{
			"bufferView":28,
			"componentType":5126,
			"count":12,
			"max":[
				-0.288126677274704,
				0.30464890599250793,
				0.14845524728298187
			],
			"min":[
				-0.38567596673965454,
				0.15823954343795776,
				-0.14869147539138794
			],
			"type":"VEC3"
		},
		{
			"bufferView":29,
			"componentType":5126,
			"count":12,
			"type":"VEC2"
		},
		{
			"bufferView":30,
			"componentType":5126,
			"count":12,
			"type":"VEC3"
		},
		{
			"bufferView":31,
			"componentType":5123,
			"count":24,
			"type":"SCALAR"
		}
	],
	"bufferViews":[
		{
			"buffer":0,
			"byteLength":8736,
			"byteOffset":0,
			"target":34962
		},
		{
			"buffer":0,
			"byteLength":5824,
			"byteOffset":8736,
			"target":34962
		},
		{
			"buffer":0,
			"byteLength":8736,
			"byteOffset":14560,
			"target":34962
		},
		{
			"buffer":0,
			"byteLength":3420,
			"byteOffset":23296,
			"target":34963
		},
		{
			"buffer":0,
			"byteLength":6336,
			"byteOffset":26716,
			"target":34962
		},
		{
			"buffer":0,
			"byteLength":4224,
			"byteOffset":33052,
			"target":34962
		},
		{
			"buffer":0,
			"byteLength":6336,
			"byteOffset":37276,
			"target":34962
		},
		{
			"buffer":0,
			"byteLength":3024,
			"byteOffset":43612,
			"target":34963
		},
		{
			"buffer":0,
			"byteLength":3552,
			"byteOffset":46636,
			"target":34962
		},
		{
			"buffer":0,
			"byteLength":2368,
			"byteOffset":50188,
			"target":34962
		},
		{
			"buffer":0,
			"byteLength":3552,
			"byteOffset":52556,
			"target":34962
		},
		{
			"buffer":0,
			"byteLength":1596,
			"byteOffset":56108,
			"target":34963
		},
		{
			"buffer":0,
			"byteLength":816,
			"byteOffset":57704,
			"target":34962
		},
		{
			"buffer":0,
			"byteLength":544,
			"byteOffset":58520,
			"target":34962
		},
		{
			"buffer":0,
			"byteLength":816,
			"byteOffset":59064,
			"target":34962
		},
		{
			"buffer":0,
			"byteLength":432,
			"byteOffset":59880,
			"target":34963
		},
		{
			"buffer":0,
			"byteLength":7632,
			"byteOffset":60312,
			"target":34962
		},
		{
			"buffer":0,
			"byteLength":5088,
			"byteOffset":67944,
			"target":34962
		},
		{
			"buffer":0,
			"byteLength":7632,
			"byteOffset":73032,
			"target":34962
		},
		{
			"buffer":0,
			"byteLength":2736,
			"byteOffset":80664,
			"target":34963
		},
		{
			"buffer":0,
			"byteLength":5424,
			"byteOffset":83400,
			"target":34962
		},
		{
			"buffer":0,
			"byteLength":3616,
			"byteOffset":88824,
			"target":34962
		},
		{
			"buffer":0,
			"byteLength":5424,
			"byteOffset":92440,
			"target":34962
		},
		{
			"buffer":0,
			"byteLength":2568,
			"byteOffset":97864,
			"target":34963
		},
		{
			"buffer":0,
			"byteLength":3288,
			"byteOffset":100432,
			"target":34962
		},
		{
			"buffer":0,
			"byteLength":2192,
			"byteOffset":103720,
			"target":34962
		},
		{
			"buffer":0,
			"byteLength":3288,
			"byteOffset":105912,
			"target":34962
		},
		{
			"buffer":0,
			"byteLength":1536,
			"byteOffset":109200,
			"target":34963
		},
		{
			"buffer":0,
			"byteLength":144,
			"byteOffset":110736,
			"target":34962
		},
		{
			"buffer":0,
			"byteLength":96,
			"byteOffset":110880,
			"target":34962
		},
		{
			"buffer":0,
			"byteLength":144,
			"byteOffset":110976,
			"target":34962
		},
		{
			"buffer":0,
			"byteLength":48,
			"byteOffset":111120,
			"target":34963
		}
	],
	"buffers":[
		{
			"byteLength":111168,
			"uri":"data:application/octet-stream;base64,"
		}
	]
}
