{
	"asset":{
		"generator":"Khronos glTF Blender I/O v3.5.30",
		"version":"2.0"
	},
	"scene":0,
	"scenes":[
		{
			"name":"Bush 1",
			"nodes":[
				1
			]
		},
		{
			"name":"Bush 2",
			"nodes":[
				2
			]
		}
	],
	"nodes":[
		{
			"mesh":0,
			"name":"Leaves (Bush 1)",
			"translation":[
				-0.08038115501403809,
				0.8873612284660339,
				0.02150508016347885
			]
		},
		{
			"children":[
				0
			],
			"mesh":1,
			"name":"Trunk (Bush 1)"
		},
		{
			"mesh":2,
			"name":"Leaves (Bush 2)",
			"scale":[
				0.6520536541938782,
				0.6520536541938782,
				0.6520536541938782
			]
		}
	],
	"meshes":[
		{
			"name":"Leaves Mesh (Bush 1)",
			"primitives":[
				{
					"attributes":{
						"POSITION":0,
						"TEXCOORD_0":1,
						"NORMAL":2
					},
					"indices":3
				}
			]
		},
		{
			"name":"Trunk Mesh (Bush 1)",
			"primitives":[
				{
					"attributes":{
						"POSITION":4,
						"TEXCOORD_0":5,
						"NORMAL":6
					},
					"indices":7
				}
			]
		},
		{
			"name":"Leaves Mesh (Bush 2)",
			"primitives":[
				{
					"attributes":{
						"POSITION":8,
						"TEXCOORD_0":9,
						"NORMAL":10
					},
					"indices":11
				}
			]
		}
	],
	"accessors":[
		{
			"bufferView":0,
			"componentType":5126,
			"count":252,
			"max":[
				1.3603554964065552,
				0.8647802472114563,
				0.8752120733261108
			],
			"min":[
				-1.2020703554153442,
				-0.6802306771278381,
				-1.152776837348938
			],
			"type":"VEC3"
		},
		{
			"bufferView":1,
			"componentType":5126,
			"count":252,
			"type":"VEC2"
		},
		{
			"bufferView":2,
			"componentType":5126,
			"count":252,
			"type":"VEC3"
		},
		{
			"bufferView":3,
			"componentType":5123,
			"count":960,
			"type":"SCALAR"
		},
		{
			"bufferView":4,
			"componentType":5126,
			"count":104,
			"max":[
				0.7618098855018616,
				0.7657400965690613,
				0.20918132364749908
			],
			"min":[
				-1.1453936100006104,
				-0.0812678188085556,
				-0.704730749130249
			],
			"type":"VEC3"
		},
		{
			"bufferView":5,
			"componentType":5126,
			"count":104,
			"type":"VEC2"
		},
		{
			"bufferView":6,
			"componentType":5126,
			"count":104,
			"type":"VEC3"
		},
		{
			"bufferView":7,
			"componentType":5123,
			"count":216,
			"type":"SCALAR"
		},
		{
			"bufferView":8,
			"componentType":5126,
			"count":205,
			"max":[
				1.5697486400604248,
				2.529453754425049,
				1.5183625221252441
			],
			"min":[
				-1.5117969512939453,
				-0.058448076248168945,
				-1.348435878753662
			],
			"type":"VEC3"
		},
		{
			"bufferView":9,
			"componentType":5126,
			"count":205,
			"type":"VEC2"
		},
		{
			"bufferView":10,
			"componentType":5126,
			"count":205,
			"type":"VEC3"
		},
		{
			"bufferView":11,
			"componentType":5123,
			"count":960,
			"type":"SCALAR"
		}
	],
	"bufferViews":[
		{
			"buffer":0,
			"byteLength":3024,
			"byteOffset":0,
			"target":34962
		},
		{
			"buffer":0,
			"byteLength":2016,
			"byteOffset":3024,
			"target":34962
		},
		{
			"buffer":0,
			"byteLength":3024,
			"byteOffset":5040,
			"target":34962
		},
		{
			"buffer":0,
			"byteLength":1920,
			"byteOffset":8064,
			"target":34963
		},
		{
			"buffer":0,
			"byteLength":1248,
			"byteOffset":9984,
			"target":34962
		},
		{
			"buffer":0,
			"byteLength":832,
			"byteOffset":11232,
			"target":34962
		},
		{
			"buffer":0,
			"byteLength":1248,
			"byteOffset":12064,
			"target":34962
		},
		{
			"buffer":0,
			"byteLength":432,
			"byteOffset":13312,
			"target":34963
		},
		{
			"buffer":0,
			"byteLength":2460,
			"byteOffset":13744,
			"target":34962
		},
		{
			"buffer":0,
			"byteLength":1640,
			"byteOffset":16204,
			"target":34962
		},
		{
			"buffer":0,
			"byteLength":2460,
			"byteOffset":17844,
			"target":34962
		},
		{
			"buffer":0,
			"byteLength":1920,
			"byteOffset":20304,
			"target":34963
		}
	],
	"buffers":[
		{
			"byteLength":22224,
			"uri":"data:application/octet-stream;base64,"
		}
	]
}
