{
	"asset":{
		"generator":"Khronos glTF Blender I/O v3.5.30",
		"version":"2.0"
	},
	"scene":0,
	"scenes":[
		{
			"name":"Scene",
			"nodes":[
				1
			]
		}
	],
	"nodes":[
		{
			"mesh":0,
			"name":"Island"
		},
		{
			"children":[
				0
			],
			"mesh":1,
			"name":"Grass"
		}
	],
	"materials":[
		{
			"doubleSided":true,
			"name":"Ground",
			"pbrMetallicRoughness":{
				"baseColorFactor":[
					0.800000011920929,
					0.800000011920929,
					0.800000011920929,
					1
				],
				"metallicFactor":0,
				"roughnessFactor":0.5
			}
		},
		{
			"doubleSided":true,
			"name":"Grass",
			"pbrMetallicRoughness":{
				"baseColorFactor":[
					0.800000011920929,
					0.800000011920929,
					0.800000011920929,
					1
				],
				"metallicFactor":0,
				"roughnessFactor":0.5
			}
		}
	],
	"meshes":[
		{
			"name":"Island Mesh",
			"primitives":[
				{
					"attributes":{
						"POSITION":0,
						"TEXCOORD_0":1,
						"NORMAL":2
					},
					"indices":3,
					"material":0
				}
			]
		},
		{
			"name":"Grass Mesh",
			"primitives":[
				{
					"attributes":{
						"POSITION":4,
						"TEXCOORD_0":5,
						"NORMAL":6
					},
					"indices":7,
					"material":1
				}
			]
		}
	],
	"accessors":[
		{
			"bufferView":0,
			"componentType":5126,
			"count":3208,
			"max":[
				1.0236002206802368,
				-0.05756080523133278,
				1.0334349870681763
			],
			"min":[
				-0.9850988984107971,
				-1.9989748001098633,
				-1.0018932819366455
			],
			"type":"VEC3"
		},
		{
			"bufferView":1,
			"componentType":5126,
			"count":3208,
			"type":"VEC2"
		},
		{
			"bufferView":2,
			"componentType":5126,
			"count":3208,
			"type":"VEC3"
		},
		{
			"bufferView":3,
			"componentType":5123,
			"count":18543,
			"type":"SCALAR"
		},
		{
			"bufferView":4,
			"componentType":5126,
			"count":1160,
			"max":[
				1.0350521802902222,
				-0.00010126829147338867,
				1.024860143661499
			],
			"min":[
				-1.0287867784500122,
				-0.22402814030647278,
				-1.034808874130249
			],
			"type":"VEC3"
		},
		{
			"bufferView":5,
			"componentType":5126,
			"count":1160,
			"type":"VEC2"
		},
		{
			"bufferView":6,
			"componentType":5126,
			"count":1160,
			"type":"VEC3"
		},
		{
			"bufferView":7,
			"componentType":5123,
			"count":5760,
			"type":"SCALAR"
		}
	],
	"bufferViews":[
		{
			"buffer":0,
			"byteLength":38496,
			"byteOffset":0,
			"target":34962
		},
		{
			"buffer":0,
			"byteLength":25664,
			"byteOffset":38496,
			"target":34962
		},
		{
			"buffer":0,
			"byteLength":38496,
			"byteOffset":64160,
			"target":34962
		},
		{
			"buffer":0,
			"byteLength":37086,
			"byteOffset":102656,
			"target":34963
		},
		{
			"buffer":0,
			"byteLength":13920,
			"byteOffset":139744,
			"target":34962
		},
		{
			"buffer":0,
			"byteLength":9280,
			"byteOffset":153664,
			"target":34962
		},
		{
			"buffer":0,
			"byteLength":13920,
			"byteOffset":162944,
			"target":34962
		},
		{
			"buffer":0,
			"byteLength":11520,
			"byteOffset":176864,
			"target":34963
		}
	],
	"buffers":[
		{
			"byteLength":188384,
			"uri":"data:application/octet-stream;base64,"
		}
	]
}
