{
	"asset":{
		"generator":"Khronos glTF Blender I/O v3.5.30",
		"version":"2.0"
	},
	"scene":0,
	"scenes":[
		{
			"name":"00 Mashed",
			"nodes":[
				0
			]
		},
		{
			"name":"01 Berry",
			"nodes":[
				1
			]
		}
	],
	"nodes":[
		{
			"mesh":0,
			"name":"Mashed Ingredient"
		},
		{
			"mesh":1,
			"name":"Berry"
		}
	],
	"materials":[
		{
			"doubleSided":true,
			"name":"Mashed",
			"pbrMetallicRoughness":{
				"baseColorFactor":[
					0.800000011920929,
					0.800000011920929,
					0.800000011920929,
					1
				],
				"metallicFactor":0,
				"roughnessFactor":0.5
			}
		}
	],
	"meshes":[
		{
			"name":"Mashed Ingredient Mesh",
			"primitives":[
				{
					"attributes":{
						"POSITION":0,
						"TEXCOORD_0":1,
						"NORMAL":2
					},
					"indices":3,
					"material":0
				}
			]
		},
		{
			"name":"Berry Mesh",
			"primitives":[
				{
					"attributes":{
						"POSITION":4,
						"TEXCOORD_0":5,
						"NORMAL":6
					},
					"indices":7
				}
			]
		}
	],
	"accessors":[
		{
			"bufferView":0,
			"componentType":5126,
			"count":571,
			"max":[
				0.26476797461509705,
				0.2903083860874176,
				0.24857626855373383
			],
			"min":[
				-0.24108748137950897,
				-0.08546797931194305,
				-0.25273382663726807
			],
			"type":"VEC3"
		},
		{
			"bufferView":1,
			"componentType":5126,
			"count":571,
			"type":"VEC2"
		},
		{
			"bufferView":2,
			"componentType":5126,
			"count":571,
			"type":"VEC3"
		},
		{
			"bufferView":3,
			"componentType":5123,
			"count":1224,
			"type":"SCALAR"
		},
		{
			"bufferView":4,
			"componentType":5126,
			"count":154,
			"max":[
				0.21494640409946442,
				0.3449398875236511,
				0.2762938141822815
			],
			"min":[
				-0.22525261342525482,
				-0.03625553846359253,
				-0.2776789963245392
			],
			"type":"VEC3"
		},
		{
			"bufferView":5,
			"componentType":5126,
			"count":154,
			"type":"VEC2"
		},
		{
			"bufferView":6,
			"componentType":5126,
			"count":154,
			"type":"VEC3"
		},
		{
			"bufferView":7,
			"componentType":5123,
			"count":420,
			"type":"SCALAR"
		}
	],
	"bufferViews":[
		{
			"buffer":0,
			"byteLength":6852,
			"byteOffset":0,
			"target":34962
		},
		{
			"buffer":0,
			"byteLength":4568,
			"byteOffset":6852,
			"target":34962
		},
		{
			"buffer":0,
			"byteLength":6852,
			"byteOffset":11420,
			"target":34962
		},
		{
			"buffer":0,
			"byteLength":2448,
			"byteOffset":18272,
			"target":34963
		},
		{
			"buffer":0,
			"byteLength":1848,
			"byteOffset":20720,
			"target":34962
		},
		{
			"buffer":0,
			"byteLength":1232,
			"byteOffset":22568,
			"target":34962
		},
		{
			"buffer":0,
			"byteLength":1848,
			"byteOffset":23800,
			"target":34962
		},
		{
			"buffer":0,
			"byteLength":840,
			"byteOffset":25648,
			"target":34963
		}
	],
	"buffers":[
		{
			"byteLength":26488,
			"uri":"data:application/octet-stream;base64,"
		}
	]
}
