{
	"asset":{
		"generator":"Khronos glTF Blender I/O v3.5.30",
		"version":"2.0"
	},
	"scene":0,
	"scenes":[
		{
			"name":"Scene",
			"nodes":[
				1
			]
		}
	],
	"nodes":[
		{
			"mesh":0,
			"name":"Mishroom Cap"
		},
		{
			"children":[
				0
			],
			"mesh":1,
			"name":"Mishroom Stem",
			"scale":[
				1.1271966695785522,
				1.1271966695785522,
				1.1271966695785522
			]
		}
	],
	"meshes":[
		{
			"name":"Mishroom Cap Mesh",
			"primitives":[
				{
					"attributes":{
						"POSITION":0,
						"TEXCOORD_0":1,
						"NORMAL":2
					},
					"indices":3
				}
			]
		},
		{
			"name":"Mishroom Stem Mesh",
			"primitives":[
				{
					"attributes":{
						"POSITION":4,
						"TEXCOORD_0":5,
						"NORMAL":6
					},
					"indices":7
				}
			]
		}
	],
	"accessors":[
		{
			"bufferView":0,
			"componentType":5126,
			"count":99,
			"max":[
				0.31344908475875854,
				0.4380543529987335,
				0.2907259464263916
			],
			"min":[
				-0.26397013664245605,
				0.12932783365249634,
				-0.22692476212978363
			],
			"type":"VEC3"
		},
		{
			"bufferView":1,
			"componentType":5126,
			"count":99,
			"type":"VEC2"
		},
		{
			"bufferView":2,
			"componentType":5126,
			"count":99,
			"type":"VEC3"
		},
		{
			"bufferView":3,
			"componentType":5123,
			"count":504,
			"type":"SCALAR"
		},
		{
			"bufferView":4,
			"componentType":5126,
			"count":243,
			"max":[
				0.30423110723495483,
				0.36375102400779724,
				0.2804727256298065
			],
			"min":[
				-0.25420212745666504,
				-0.0436142198741436,
				-0.22071242332458496
			],
			"type":"VEC3"
		},
		{
			"bufferView":5,
			"componentType":5126,
			"count":243,
			"type":"VEC2"
		},
		{
			"bufferView":6,
			"componentType":5126,
			"count":243,
			"type":"VEC3"
		},
		{
			"bufferView":7,
			"componentType":5123,
			"count":1368,
			"type":"SCALAR"
		}
	],
	"bufferViews":[
		{
			"buffer":0,
			"byteLength":1188,
			"byteOffset":0,
			"target":34962
		},
		{
			"buffer":0,
			"byteLength":792,
			"byteOffset":1188,
			"target":34962
		},
		{
			"buffer":0,
			"byteLength":1188,
			"byteOffset":1980,
			"target":34962
		},
		{
			"buffer":0,
			"byteLength":1008,
			"byteOffset":3168,
			"target":34963
		},
		{
			"buffer":0,
			"byteLength":2916,
			"byteOffset":4176,
			"target":34962
		},
		{
			"buffer":0,
			"byteLength":1944,
			"byteOffset":7092,
			"target":34962
		},
		{
			"buffer":0,
			"byteLength":2916,
			"byteOffset":9036,
			"target":34962
		},
		{
			"buffer":0,
			"byteLength":2736,
			"byteOffset":11952,
			"target":34963
		}
	],
	"buffers":[
		{
			"byteLength":14688,
			"uri":"data:application/octet-stream;base64,"
		}
	]
}
