{
	"asset":{
		"generator":"Khronos glTF Blender I/O v3.5.30",
		"version":"2.0"
	},
	"scene":0,
	"scenes":[
		{
			"name":"00 Mushroom",
			"nodes":[
				1
			]
		},
		{
			"name":"01 Mushroom",
			"nodes":[
				3
			]
		}
	],
	"nodes":[
		{
			"mesh":0,
			"name":"Mishroom Cap"
		},
		{
			"children":[
				0
			],
			"mesh":1,
			"name":"Mishroom Stem"
		},
		{
			"mesh":2,
			"name":"Mishroom Cap 2"
		},
		{
			"children":[
				2
			],
			"mesh":3,
			"name":"Mishroom Stem 2"
		}
	],
	"meshes":[
		{
			"name":"Mishroom Cap Mesh",
			"primitives":[
				{
					"attributes":{
						"POSITION":0,
						"TEXCOORD_0":1,
						"NORMAL":2
					},
					"indices":3
				}
			]
		},
		{
			"name":"Mishroom Stem Mesh",
			"primitives":[
				{
					"attributes":{
						"POSITION":4,
						"TEXCOORD_0":5,
						"NORMAL":6
					},
					"indices":7
				}
			]
		},
		{
			"name":"Mishroom Cap Mesh 2",
			"primitives":[
				{
					"attributes":{
						"POSITION":8,
						"TEXCOORD_0":9,
						"NORMAL":10
					},
					"indices":11
				},
				{
					"attributes":{
						"POSITION":12,
						"TEXCOORD_0":13,
						"NORMAL":14
					},
					"indices":15
				}
			]
		},
		{
			"name":"Mishroom Stem Mesh 2",
			"primitives":[
				{
					"attributes":{
						"POSITION":16,
						"TEXCOORD_0":17,
						"NORMAL":18
					},
					"indices":19
				},
				{
					"attributes":{
						"POSITION":20,
						"TEXCOORD_0":21,
						"NORMAL":22
					},
					"indices":19
				}
			]
		}
	],
	"accessors":[
		{
			"bufferView":0,
			"componentType":5126,
			"count":99,
			"max":[
				0.292207807302475,
				0.4246378540992737,
				0.2741072177886963
			],
			"min":[
				-0.24997691810131073,
				0.13475000858306885,
				-0.21195612847805023
			],
			"type":"VEC3"
		},
		{
			"bufferView":1,
			"componentType":5126,
			"count":99,
			"type":"VEC2"
		},
		{
			"bufferView":2,
			"componentType":5126,
			"count":99,
			"type":"VEC3"
		},
		{
			"bufferView":3,
			"componentType":5123,
			"count":504,
			"type":"SCALAR"
		},
		{
			"bufferView":4,
			"componentType":5126,
			"count":243,
			"max":[
				0.2835523188114166,
				0.3548685610294342,
				0.2644796669483185
			],
			"min":[
				-0.24080494046211243,
				-0.027638999745249748,
				-0.20612289011478424
			],
			"type":"VEC3"
		},
		{
			"bufferView":5,
			"componentType":5126,
			"count":243,
			"type":"VEC2"
		},
		{
			"bufferView":6,
			"componentType":5126,
			"count":243,
			"type":"VEC3"
		},
		{
			"bufferView":7,
			"componentType":5123,
			"count":1368,
			"type":"SCALAR"
		},
		{
			"bufferView":8,
			"componentType":5126,
			"count":33,
			"max":[
				0.2716175615787506,
				0.4907805919647217,
				0.27067023515701294
			],
			"min":[
				-0.2708532214164734,
				0.4246801733970642,
				-0.27179786562919617
			],
			"type":"VEC3"
		},
		{
			"bufferView":9,
			"componentType":5126,
			"count":33,
			"type":"VEC2"
		},
		{
			"bufferView":10,
			"componentType":5126,
			"count":33,
			"type":"VEC3"
		},
		{
			"bufferView":11,
			"componentType":5123,
			"count":168,
			"type":"SCALAR"
		},
		{
			"bufferView":12,
			"componentType":5126,
			"count":33,
			"max":[
				0.3333497941493988,
				0.32346975803375244,
				0.13247083127498627
			],
			"min":[
				0.055575061589479446,
				0.24454380571842194,
				-0.15303613245487213
			],
			"type":"VEC3"
		},
		{
			"bufferView":13,
			"componentType":5126,
			"count":33,
			"type":"VEC2"
		},
		{
			"bufferView":14,
			"componentType":5126,
			"count":33,
			"type":"VEC3"
		},
		{
			"bufferView":15,
			"componentType":5123,
			"count":186,
			"type":"SCALAR"
		},
		{
			"bufferView":16,
			"componentType":5126,
			"count":89,
			"max":[
				0.33362746238708496,
				0.3091112971305847,
				0.13298474252223969
			],
			"min":[
				0.027338452637195587,
				-0.018028123304247856,
				-0.15252220630645752
			],
			"type":"VEC3"
		},
		{
			"bufferView":17,
			"componentType":5126,
			"count":89,
			"type":"VEC2"
		},
		{
			"bufferView":18,
			"componentType":5126,
			"count":89,
			"type":"VEC3"
		},
		{
			"bufferView":19,
			"componentType":5123,
			"count":504,
			"type":"SCALAR"
		},
		{
			"bufferView":20,
			"componentType":5126,
			"count":89,
			"max":[
				0.2716175615787506,
				0.4277590215206146,
				0.27067020535469055
			],
			"min":[
				-0.2708532512187958,
				-0.02581440471112728,
				-0.2717978358268738
			],
			"type":"VEC3"
		},
		{
			"bufferView":21,
			"componentType":5126,
			"count":89,
			"type":"VEC2"
		},
		{
			"bufferView":22,
			"componentType":5126,
			"count":89,
			"type":"VEC3"
		}
	],
	"bufferViews":[
		{
			"buffer":0,
			"byteLength":1188,
			"byteOffset":0,
			"target":34962
		},
		{
			"buffer":0,
			"byteLength":792,
			"byteOffset":1188,
			"target":34962
		},
		{
			"buffer":0,
			"byteLength":1188,
			"byteOffset":1980,
			"target":34962
		},
		{
			"buffer":0,
			"byteLength":1008,
			"byteOffset":3168,
			"target":34963
		},
		{
			"buffer":0,
			"byteLength":2916,
			"byteOffset":4176,
			"target":34962
		},
		{
			"buffer":0,
			"byteLength":1944,
			"byteOffset":7092,
			"target":34962
		},
		{
			"buffer":0,
			"byteLength":2916,
			"byteOffset":9036,
			"target":34962
		},
		{
			"buffer":0,
			"byteLength":2736,
			"byteOffset":11952,
			"target":34963
		},
		{
			"buffer":0,
			"byteLength":396,
			"byteOffset":14688,
			"target":34962
		},
		{
			"buffer":0,
			"byteLength":264,
			"byteOffset":15084,
			"target":34962
		},
		{
			"buffer":0,
			"byteLength":396,
			"byteOffset":15348,
			"target":34962
		},
		{
			"buffer":0,
			"byteLength":336,
			"byteOffset":15744,
			"target":34963
		},
		{
			"buffer":0,
			"byteLength":396,
			"byteOffset":16080,
			"target":34962
		},
		{
			"buffer":0,
			"byteLength":264,
			"byteOffset":16476,
			"target":34962
		},
		{
			"buffer":0,
			"byteLength":396,
			"byteOffset":16740,
			"target":34962
		},
		{
			"buffer":0,
			"byteLength":372,
			"byteOffset":17136,
			"target":34963
		},
		{
			"buffer":0,
			"byteLength":1068,
			"byteOffset":17508,
			"target":34962
		},
		{
			"buffer":0,
			"byteLength":712,
			"byteOffset":18576,
			"target":34962
		},
		{
			"buffer":0,
			"byteLength":1068,
			"byteOffset":19288,
			"target":34962
		},
		{
			"buffer":0,
			"byteLength":1008,
			"byteOffset":20356,
			"target":34963
		},
		{
			"buffer":0,
			"byteLength":1068,
			"byteOffset":21364,
			"target":34962
		},
		{
			"buffer":0,
			"byteLength":712,
			"byteOffset":22432,
			"target":34962
		},
		{
			"buffer":0,
			"byteLength":1068,
			"byteOffset":23144,
			"target":34962
		}
	],
	"buffers":[
		{
			"byteLength":24212,
			"uri":"data:application/octet-stream;base64,"
		}
	]
}
