{
	"asset":{
		"generator":"Khronos glTF Blender I/O v3.5.30",
		"version":"2.0"
	},
	"scene":2,
	"scenes":[
		{
			"name":"Potion 1",
			"nodes":[
				1
			]
		},
		{
			"name":"Potion 2",
			"nodes":[
				3
			]
		},
		{
			"name":"Potion 3",
			"nodes":[
				5
			]
		},
		{
			"name":"Potion 4",
			"nodes":[
				7
			]
		},
		{
			"name":"Potion 5",
			"nodes":[
				9
			]
		}
	],
	"nodes":[
		{
			"mesh":0,
			"name":"Cork 1",
			"translation":[
				-0.0015096123097464442,
				0.6404507756233215,
				0.0011458391090855002
			]
		},
		{
			"children":[
				0
			],
			"mesh":1,
			"name":"Potion 1"
		},
		{
			"mesh":2,
			"name":"Cork 2",
			"translation":[
				0,
				0.5429742932319641,
				0
			]
		},
		{
			"children":[
				2
			],
			"mesh":3,
			"name":"Potion 2"
		},
		{
			"mesh":4,
			"name":"Cork 3"
		},
		{
			"children":[
				4
			],
			"mesh":5,
			"name":"Potion 3.001"
		},
		{
			"mesh":6,
			"name":"Cork 4"
		},
		{
			"children":[
				6
			],
			"mesh":7,
			"name":"Potion 4"
		},
		{
			"mesh":8,
			"name":"Cork 5",
			"translation":[
				0,
				0.6624122858047485,
				0
			]
		},
		{
			"children":[
				8
			],
			"mesh":9,
			"name":"Potion 5"
		}
	],
	"materials":[
		{
			"doubleSided":true,
			"name":"Cork",
			"pbrMetallicRoughness":{
				"baseColorFactor":[
					0.8000000715255737,
					0.3504791259765625,
					0.09973486512899399,
					1
				],
				"metallicFactor":0,
				"roughnessFactor":0.5
			}
		},
		{
			"doubleSided":true,
			"name":"Potion",
			"pbrMetallicRoughness":{
				"baseColorFactor":[
					0.8000000715255737,
					0,
					0.00267806532792747,
					1
				],
				"metallicFactor":0,
				"roughnessFactor":0.5
			}
		}
	],
	"meshes":[
		{
			"name":"Cork Mesh 1",
			"primitives":[
				{
					"attributes":{
						"POSITION":0,
						"TEXCOORD_0":1,
						"NORMAL":2
					},
					"indices":3,
					"material":0
				}
			]
		},
		{
			"name":"Potion Mesh 1",
			"primitives":[
				{
					"attributes":{
						"POSITION":4,
						"TEXCOORD_0":5,
						"NORMAL":6
					},
					"indices":7,
					"material":1
				}
			]
		},
		{
			"name":"Cork Mesh 2",
			"primitives":[
				{
					"attributes":{
						"POSITION":8,
						"TEXCOORD_0":9,
						"NORMAL":10
					},
					"indices":3,
					"material":0
				}
			]
		},
		{
			"name":"Potion Mesh 2",
			"primitives":[
				{
					"attributes":{
						"POSITION":11,
						"TEXCOORD_0":12,
						"NORMAL":13
					},
					"indices":14,
					"material":1
				}
			]
		},
		{
			"name":"Cork Mesh 3",
			"primitives":[
				{
					"attributes":{
						"POSITION":15,
						"TEXCOORD_0":16,
						"NORMAL":17
					},
					"indices":3,
					"material":0
				}
			]
		},
		{
			"name":"Potion Mesh 3",
			"primitives":[
				{
					"attributes":{
						"POSITION":18,
						"TEXCOORD_0":19,
						"NORMAL":20
					},
					"indices":21,
					"material":1
				}
			]
		},
		{
			"name":"Cork Mesh 4",
			"primitives":[
				{
					"attributes":{
						"POSITION":22,
						"TEXCOORD_0":23,
						"NORMAL":24
					},
					"indices":3,
					"material":0
				}
			]
		},
		{
			"name":"Potion Mesh 4",
			"primitives":[
				{
					"attributes":{
						"POSITION":25,
						"TEXCOORD_0":26,
						"NORMAL":27
					},
					"indices":28,
					"material":1
				}
			]
		},
		{
			"name":"Cork Mesh 5",
			"primitives":[
				{
					"attributes":{
						"POSITION":29,
						"TEXCOORD_0":30,
						"NORMAL":31
					},
					"indices":3,
					"material":0
				}
			]
		},
		{
			"name":"Potion Mesh 5",
			"primitives":[
				{
					"attributes":{
						"POSITION":32,
						"TEXCOORD_0":33,
						"NORMAL":34
					},
					"indices":35,
					"material":1
				}
			]
		}
	],
	"accessors":[
		{
			"bufferView":0,
			"componentType":5126,
			"count":25,
			"max":[
				0.05992874130606651,
				0.02193436399102211,
				0.05992874130606651
			],
			"min":[
				-0.05992874130606651,
				-0.044180404394865036,
				-0.05992874130606651
			],
			"type":"VEC3"
		},
		{
			"bufferView":1,
			"componentType":5126,
			"count":25,
			"type":"VEC2"
		},
		{
			"bufferView":2,
			"componentType":5126,
			"count":25,
			"type":"VEC3"
		},
		{
			"bufferView":3,
			"componentType":5123,
			"count":72,
			"type":"SCALAR"
		},
		{
			"bufferView":4,
			"componentType":5126,
			"count":97,
			"max":[
				0.2603648006916046,
				0.5962703824043274,
				0.2603648006916046
			],
			"min":[
				-0.2603648006916046,
				0,
				-0.2603648006916046
			],
			"type":"VEC3"
		},
		{
			"bufferView":5,
			"componentType":5126,
			"count":97,
			"type":"VEC2"
		},
		{
			"bufferView":6,
			"componentType":5126,
			"count":97,
			"type":"VEC3"
		},
		{
			"bufferView":7,
			"componentType":5123,
			"count":408,
			"type":"SCALAR"
		},
		{
			"bufferView":8,
			"componentType":5126,
			"count":25,
			"max":[
				0.05658955127000809,
				0.057969916611909866,
				0.05658955127000809
			],
			"min":[
				-0.05658955127000809,
				-0.004460975527763367,
				-0.05658955127000809
			],
			"type":"VEC3"
		},
		{
			"bufferView":9,
			"componentType":5126,
			"count":25,
			"type":"VEC2"
		},
		{
			"bufferView":10,
			"componentType":5126,
			"count":25,
			"type":"VEC3"
		},
		{
			"bufferView":11,
			"componentType":5126,
			"count":105,
			"max":[
				0.23483505845069885,
				0.5385133624076843,
				0.23483505845069885
			],
			"min":[
				-0.23483505845069885,
				0,
				-0.23483505845069885
			],
			"type":"VEC3"
		},
		{
			"bufferView":12,
			"componentType":5126,
			"count":105,
			"type":"VEC2"
		},
		{
			"bufferView":13,
			"componentType":5126,
			"count":105,
			"type":"VEC3"
		},
		{
			"bufferView":14,
			"componentType":5123,
			"count":456,
			"type":"SCALAR"
		},
		{
			"bufferView":15,
			"componentType":5126,
			"count":25,
			"max":[
				0.06261983513832092,
				0.6934152841567993,
				0.06273616850376129
			],
			"min":[
				-0.06273616850376129,
				0.6242032647132874,
				-0.0625627264380455
			],
			"type":"VEC3"
		},
		{
			"bufferView":16,
			"componentType":5126,
			"count":25,
			"type":"VEC2"
		},
		{
			"bufferView":17,
			"componentType":5126,
			"count":25,
			"type":"VEC3"
		},
		{
			"bufferView":18,
			"componentType":5126,
			"count":80,
			"max":[
				0.08790937811136246,
				0.6242033243179321,
				0.08790937811136246
			],
			"min":[
				-0.08790937811136246,
				0,
				-0.08790937811136246
			],
			"type":"VEC3"
		},
		{
			"bufferView":19,
			"componentType":5126,
			"count":80,
			"type":"VEC2"
		},
		{
			"bufferView":20,
			"componentType":5126,
			"count":80,
			"type":"VEC3"
		},
		{
			"bufferView":21,
			"componentType":5123,
			"count":264,
			"type":"SCALAR"
		},
		{
			"bufferView":22,
			"componentType":5126,
			"count":25,
			"max":[
				0.06084989011287689,
				0.6641800403594971,
				0.06084989011287689
			],
			"min":[
				-0.06084989011287689,
				0.5970490574836731,
				-0.06084989011287689
			],
			"type":"VEC3"
		},
		{
			"bufferView":23,
			"componentType":5126,
			"count":25,
			"type":"VEC2"
		},
		{
			"bufferView":24,
			"componentType":5126,
			"count":25,
			"type":"VEC3"
		},
		{
			"bufferView":25,
			"componentType":5126,
			"count":144,
			"max":[
				0.2467631995677948,
				0.5970490574836731,
				0.2467631995677948
			],
			"min":[
				-0.2467631995677948,
				0,
				-0.2467631995677948
			],
			"type":"VEC3"
		},
		{
			"bufferView":26,
			"componentType":5126,
			"count":144,
			"type":"VEC2"
		},
		{
			"bufferView":27,
			"componentType":5126,
			"count":144,
			"type":"VEC3"
		},
		{
			"bufferView":28,
			"componentType":5123,
			"count":552,
			"type":"SCALAR"
		},
		{
			"bufferView":29,
			"componentType":5126,
			"count":25,
			"max":[
				0.06198374181985855,
				0.056857429444789886,
				0.06198374181985855
			],
			"min":[
				-0.06198374181985855,
				-0.011524464003741741,
				-0.06198374181985855
			],
			"type":"VEC3"
		},
		{
			"bufferView":30,
			"componentType":5126,
			"count":25,
			"type":"VEC2"
		},
		{
			"bufferView":31,
			"componentType":5126,
			"count":25,
			"type":"VEC3"
		},
		{
			"bufferView":32,
			"componentType":5126,
			"count":144,
			"max":[
				0.2837889492511749,
				0.6508878469467163,
				0.2837889492511749
			],
			"min":[
				-0.2837889492511749,
				-0.003195284167304635,
				-0.2837889492511749
			],
			"type":"VEC3"
		},
		{
			"bufferView":33,
			"componentType":5126,
			"count":144,
			"type":"VEC2"
		},
		{
			"bufferView":34,
			"componentType":5126,
			"count":144,
			"type":"VEC3"
		},
		{
			"bufferView":35,
			"componentType":5123,
			"count":552,
			"type":"SCALAR"
		}
	],
	"bufferViews":[
		{
			"buffer":0,
			"byteLength":300,
			"byteOffset":0,
			"target":34962
		},
		{
			"buffer":0,
			"byteLength":200,
			"byteOffset":300,
			"target":34962
		},
		{
			"buffer":0,
			"byteLength":300,
			"byteOffset":500,
			"target":34962
		},
		{
			"buffer":0,
			"byteLength":144,
			"byteOffset":800,
			"target":34963
		},
		{
			"buffer":0,
			"byteLength":1164,
			"byteOffset":944,
			"target":34962
		},
		{
			"buffer":0,
			"byteLength":776,
			"byteOffset":2108,
			"target":34962
		},
		{
			"buffer":0,
			"byteLength":1164,
			"byteOffset":2884,
			"target":34962
		},
		{
			"buffer":0,
			"byteLength":816,
			"byteOffset":4048,
			"target":34963
		},
		{
			"buffer":0,
			"byteLength":300,
			"byteOffset":4864,
			"target":34962
		},
		{
			"buffer":0,
			"byteLength":200,
			"byteOffset":5164,
			"target":34962
		},
		{
			"buffer":0,
			"byteLength":300,
			"byteOffset":5364,
			"target":34962
		},
		{
			"buffer":0,
			"byteLength":1260,
			"byteOffset":5664,
			"target":34962
		},
		{
			"buffer":0,
			"byteLength":840,
			"byteOffset":6924,
			"target":34962
		},
		{
			"buffer":0,
			"byteLength":1260,
			"byteOffset":7764,
			"target":34962
		},
		{
			"buffer":0,
			"byteLength":912,
			"byteOffset":9024,
			"target":34963
		},
		{
			"buffer":0,
			"byteLength":300,
			"byteOffset":9936,
			"target":34962
		},
		{
			"buffer":0,
			"byteLength":200,
			"byteOffset":10236,
			"target":34962
		},
		{
			"buffer":0,
			"byteLength":300,
			"byteOffset":10436,
			"target":34962
		},
		{
			"buffer":0,
			"byteLength":960,
			"byteOffset":10736,
			"target":34962
		},
		{
			"buffer":0,
			"byteLength":640,
			"byteOffset":11696,
			"target":34962
		},
		{
			"buffer":0,
			"byteLength":960,
			"byteOffset":12336,
			"target":34962
		},
		{
			"buffer":0,
			"byteLength":528,
			"byteOffset":13296,
			"target":34963
		},
		{
			"buffer":0,
			"byteLength":300,
			"byteOffset":13824,
			"target":34962
		},
		{
			"buffer":0,
			"byteLength":200,
			"byteOffset":14124,
			"target":34962
		},
		{
			"buffer":0,
			"byteLength":300,
			"byteOffset":14324,
			"target":34962
		},
		{
			"buffer":0,
			"byteLength":1728,
			"byteOffset":14624,
			"target":34962
		},
		{
			"buffer":0,
			"byteLength":1152,
			"byteOffset":16352,
			"target":34962
		},
		{
			"buffer":0,
			"byteLength":1728,
			"byteOffset":17504,
			"target":34962
		},
		{
			"buffer":0,
			"byteLength":1104,
			"byteOffset":19232,
			"target":34963
		},
		{
			"buffer":0,
			"byteLength":300,
			"byteOffset":20336,
			"target":34962
		},
		{
			"buffer":0,
			"byteLength":200,
			"byteOffset":20636,
			"target":34962
		},
		{
			"buffer":0,
			"byteLength":300,
			"byteOffset":20836,
			"target":34962
		},
		{
			"buffer":0,
			"byteLength":1728,
			"byteOffset":21136,
			"target":34962
		},
		{
			"buffer":0,
			"byteLength":1152,
			"byteOffset":22864,
			"target":34962
		},
		{
			"buffer":0,
			"byteLength":1728,
			"byteOffset":24016,
			"target":34962
		},
		{
			"buffer":0,
			"byteLength":1104,
			"byteOffset":25744,
			"target":34963
		}
	],
	"buffers":[
		{
			"byteLength":26848,
			"uri":"data:application/octet-stream;base64,"
		}
	]
}
