{
	"asset":{
		"generator":"Khronos glTF Blender I/O v3.5.30",
		"version":"2.0"
	},
	"extensionsUsed":[
		"KHR_materials_specular",
		"KHR_materials_ior"
	],
	"scene":0,
	"scenes":[
		{
			"name":"Scene",
			"nodes":[
				1
			]
		}
	],
	"nodes":[
		{
			"mesh":0,
			"name":"Leaves",
			"translation":[
				1.287176489830017,
				8.194204330444336,
				3.7715086936950684
			]
		},
		{
			"children":[
				0
			],
			"mesh":1,
			"name":"Trunk"
		}
	],
	"materials":[
		{
			"doubleSided":true,
			"extensions":{
				"KHR_materials_specular":{
					"specularColorFactor":[
						2.2546326889309185,
						2.2546326889309185,
						2.2546326889309185
					]
				},
				"KHR_materials_ior":{
					"ior":1.4500000476837158
				}
			},
			"name":"Leaves",
			"pbrMetallicRoughness":{
				"baseColorFactor":[
					0,
					0.16264250874519348,
					0.002877275226637721,
					1
				],
				"metallicFactor":0,
				"roughnessFactor":0.7331606149673462
			}
		},
		{
			"doubleSided":true,
			"extensions":{
				"KHR_materials_specular":{
					"specularColorFactor":[
						0.743353019199389,
						0.743353019199389,
						0.743353019199389
					]
				},
				"KHR_materials_ior":{
					"ior":1.4500000476837158
				}
			},
			"name":"Bark",
			"pbrMetallicRoughness":{
				"baseColorFactor":[
					0.09462565183639526,
					0.015407743863761425,
					0,
					1
				],
				"metallicFactor":0,
				"roughnessFactor":0.8523316383361816
			}
		}
	],
	"meshes":[
		{
			"name":"Leaves Mesh",
			"primitives":[
				{
					"attributes":{
						"POSITION":0,
						"TEXCOORD_0":1,
						"NORMAL":2
					},
					"indices":3,
					"material":0
				}
			]
		},
		{
			"name":"Trunk Mesh",
			"primitives":[
				{
					"attributes":{
						"POSITION":4,
						"TEXCOORD_0":5,
						"NORMAL":6
					},
					"indices":7,
					"material":1
				}
			]
		}
	],
	"accessors":[
		{
			"bufferView":0,
			"componentType":5126,
			"count":1440,
			"max":[
				5.608273506164551,
				10.808921813964844,
				2.817526340484619
			],
			"min":[
				-6.283524513244629,
				-1.6900858879089355,
				-9.829054832458496
			],
			"type":"VEC3"
		},
		{
			"bufferView":1,
			"componentType":5126,
			"count":1440,
			"type":"VEC2"
		},
		{
			"bufferView":2,
			"componentType":5126,
			"count":1440,
			"type":"VEC3"
		},
		{
			"bufferView":3,
			"componentType":5123,
			"count":1440,
			"type":"SCALAR"
		},
		{
			"bufferView":4,
			"componentType":5126,
			"count":280,
			"max":[
				2.991389751434326,
				12.228758811950684,
				3.6876866817474365
			],
			"min":[
				-2.1520915031433105,
				-0.9631270170211792,
				-3.813035488128662
			],
			"type":"VEC3"
		},
		{
			"bufferView":5,
			"componentType":5126,
			"count":280,
			"type":"VEC2"
		},
		{
			"bufferView":6,
			"componentType":5126,
			"count":280,
			"type":"VEC3"
		},
		{
			"bufferView":7,
			"componentType":5123,
			"count":420,
			"type":"SCALAR"
		}
	],
	"bufferViews":[
		{
			"buffer":0,
			"byteLength":17280,
			"byteOffset":0,
			"target":34962
		},
		{
			"buffer":0,
			"byteLength":11520,
			"byteOffset":17280,
			"target":34962
		},
		{
			"buffer":0,
			"byteLength":17280,
			"byteOffset":28800,
			"target":34962
		},
		{
			"buffer":0,
			"byteLength":2880,
			"byteOffset":46080,
			"target":34963
		},
		{
			"buffer":0,
			"byteLength":3360,
			"byteOffset":48960,
			"target":34962
		},
		{
			"buffer":0,
			"byteLength":2240,
			"byteOffset":52320,
			"target":34962
		},
		{
			"buffer":0,
			"byteLength":3360,
			"byteOffset":54560,
			"target":34962
		},
		{
			"buffer":0,
			"byteLength":840,
			"byteOffset":57920,
			"target":34963
		}
	],
	"buffers":[
		{
			"byteLength":58760,
			"uri":"Tree.bin"
		}
	]
}
