{
	"asset":{
		"generator":"Khronos glTF Blender I/O v3.5.30",
		"version":"2.0"
	},
	"scene":0,
	"scenes":[
		{
			"name":"Scene",
			"nodes":[
				1
			]
		}
	],
	"nodes":[
		{
			"mesh":0,
			"name":"Leaves",
			"translation":[
				1.287176489830017,
				8.194204330444336,
				3.7715086936950684
			]
		},
		{
			"children":[
				0
			],
			"mesh":1,
			"name":"Trunk"
		}
	],
	"meshes":[
		{
			"name":"Leaves Mesh",
			"primitives":[
				{
					"attributes":{
						"POSITION":0,
						"TEXCOORD_0":1,
						"NORMAL":2
					},
					"indices":3
				}
			]
		},
		{
			"name":"Trunk Mesh",
			"primitives":[
				{
					"attributes":{
						"POSITION":4,
						"TEXCOORD_0":5,
						"NORMAL":6
					},
					"indices":7
				}
			]
		}
	],
	"accessors":[
		{
			"bufferView":0,
			"componentType":5126,
			"count":2602,
			"max":[
				5.278048515319824,
				10.758797645568848,
				2.4778594970703125
			],
			"min":[
				-5.785904884338379,
				-1.5381461381912231,
				-9.71359920501709
			],
			"type":"VEC3"
		},
		{
			"bufferView":1,
			"componentType":5126,
			"count":2602,
			"type":"VEC2"
		},
		{
			"bufferView":2,
			"componentType":5126,
			"count":2602,
			"type":"VEC3"
		},
		{
			"bufferView":3,
			"componentType":5123,
			"count":8640,
			"type":"SCALAR"
		},
		{
			"bufferView":4,
			"componentType":5126,
			"count":280,
			"max":[
				2.991389751434326,
				12.228758811950684,
				3.6876866817474365
			],
			"min":[
				-2.1520915031433105,
				-0.9631270170211792,
				-3.813035488128662
			],
			"type":"VEC3"
		},
		{
			"bufferView":5,
			"componentType":5126,
			"count":280,
			"type":"VEC2"
		},
		{
			"bufferView":6,
			"componentType":5126,
			"count":280,
			"type":"VEC3"
		},
		{
			"bufferView":7,
			"componentType":5123,
			"count":420,
			"type":"SCALAR"
		}
	],
	"bufferViews":[
		{
			"buffer":0,
			"byteLength":31224,
			"byteOffset":0,
			"target":34962
		},
		{
			"buffer":0,
			"byteLength":20816,
			"byteOffset":31224,
			"target":34962
		},
		{
			"buffer":0,
			"byteLength":31224,
			"byteOffset":52040,
			"target":34962
		},
		{
			"buffer":0,
			"byteLength":17280,
			"byteOffset":83264,
			"target":34963
		},
		{
			"buffer":0,
			"byteLength":3360,
			"byteOffset":100544,
			"target":34962
		},
		{
			"buffer":0,
			"byteLength":2240,
			"byteOffset":103904,
			"target":34962
		},
		{
			"buffer":0,
			"byteLength":3360,
			"byteOffset":106144,
			"target":34962
		},
		{
			"buffer":0,
			"byteLength":840,
			"byteOffset":109504,
			"target":34963
		}
	],
	"buffers":[
		{
			"byteLength":110344,
			"uri":"data:application/octet-stream;base64,"
		}
	]
}
