{
	"asset":{
		"generator":"Khronos glTF Blender I/O v3.5.30",
		"version":"2.0"
	},
	"extensionsUsed":[
		"KHR_materials_specular",
		"KHR_materials_ior"
	],
	"scene":0,
	"scenes":[
		{
			"name":"Tree 1",
			"nodes":[
				1
			]
		}
	],
	"nodes":[
		{
			"mesh":0,
			"name":"Leaves"
		},
		{
			"children":[
				0
			],
			"mesh":1,
			"name":"Trunk",
			"scale":[
				1.4703478813171387,
				1.4703478813171387,
				1.4703478813171387
			]
		}
	],
	"materials":[
		{
			"extensions":{
				"KHR_materials_specular":{
					"specularColorFactor":[
						2.254632688930918,
						2.2546326889309185,
						2.254632688930918
					]
				},
				"KHR_materials_ior":{
					"ior":1.4500000476837158
				}
			},
			"name":"Leaves.001",
			"pbrMetallicRoughness":{
				"baseColorFactor":[
					0,
					0.16264250874519348,
					0.002877275226637721,
					1
				],
				"metallicFactor":0,
				"roughnessFactor":0.7331606149673462
			}
		},
		{
			"extensions":{
				"KHR_materials_specular":{
					"specularColorFactor":[
						0.743353019199389,
						0.743353019199389,
						0.743353019199389
					]
				},
				"KHR_materials_ior":{
					"ior":1.4500000476837158
				}
			},
			"name":"Bark.001",
			"pbrMetallicRoughness":{
				"baseColorFactor":[
					0.09462565183639526,
					0.015407743863761425,
					0,
					1
				],
				"metallicFactor":0,
				"roughnessFactor":0.8523316383361816
			}
		}
	],
	"meshes":[
		{
			"name":"Leaves Mesh",
			"primitives":[
				{
					"attributes":{
						"POSITION":0,
						"TEXCOORD_0":1,
						"NORMAL":2
					},
					"indices":3,
					"material":0
				}
			]
		},
		{
			"name":"Trunk Mesh",
			"primitives":[
				{
					"attributes":{
						"POSITION":4,
						"TEXCOORD_0":5,
						"NORMAL":6
					},
					"indices":7,
					"material":1
				}
			]
		}
	],
	"accessors":[
		{
			"bufferView":0,
			"componentType":5126,
			"count":331,
			"max":[
				1.353765845298767,
				3.7948129177093506,
				1.2789760828018188
			],
			"min":[
				-1.0516812801361084,
				1.2531272172927856,
				-1.2249575853347778
			],
			"type":"VEC3"
		},
		{
			"bufferView":1,
			"componentType":5126,
			"count":331,
			"type":"VEC2"
		},
		{
			"bufferView":2,
			"componentType":5126,
			"count":331,
			"type":"VEC3"
		},
		{
			"bufferView":3,
			"componentType":5123,
			"count":1440,
			"type":"SCALAR"
		},
		{
			"bufferView":4,
			"componentType":5126,
			"count":126,
			"max":[
				0.5594432950019836,
				2.396909236907959,
				0.7811630964279175
			],
			"min":[
				-0.3794827461242676,
				-0.09736727923154831,
				-0.7805721759796143
			],
			"type":"VEC3"
		},
		{
			"bufferView":5,
			"componentType":5126,
			"count":126,
			"type":"VEC2"
		},
		{
			"bufferView":6,
			"componentType":5126,
			"count":126,
			"type":"VEC3"
		},
		{
			"bufferView":7,
			"componentType":5123,
			"count":324,
			"type":"SCALAR"
		}
	],
	"bufferViews":[
		{
			"buffer":0,
			"byteLength":3972,
			"byteOffset":0,
			"target":34962
		},
		{
			"buffer":0,
			"byteLength":2648,
			"byteOffset":3972,
			"target":34962
		},
		{
			"buffer":0,
			"byteLength":3972,
			"byteOffset":6620,
			"target":34962
		},
		{
			"buffer":0,
			"byteLength":2880,
			"byteOffset":10592,
			"target":34963
		},
		{
			"buffer":0,
			"byteLength":1512,
			"byteOffset":13472,
			"target":34962
		},
		{
			"buffer":0,
			"byteLength":1008,
			"byteOffset":14984,
			"target":34962
		},
		{
			"buffer":0,
			"byteLength":1512,
			"byteOffset":15992,
			"target":34962
		},
		{
			"buffer":0,
			"byteLength":648,
			"byteOffset":17504,
			"target":34963
		}
	],
	"buffers":[
		{
			"byteLength":18152,
			"uri":"data:application/octet-stream;base64,"
		}
	]
}
