{
	"asset":{
		"generator":"Khronos glTF Blender I/O v3.5.30",
		"version":"2.0"
	},
	"scene":0,
	"scenes":[
		{
			"name":"Scene",
			"nodes":[
				1
			]
		}
	],
	"nodes":[
		{
			"mesh":0,
			"name":"Leaves",
			"translation":[
				1.287176489830017,
				8.194204330444336,
				3.7715086936950684
			]
		},
		{
			"children":[
				0
			],
			"mesh":1,
			"name":"Trunk"
		}
	],
	"meshes":[
		{
			"name":"Leaves Mesh",
			"primitives":[
				{
					"attributes":{
						"POSITION":0,
						"TEXCOORD_0":1,
						"NORMAL":2
					},
					"indices":3
				}
			]
		},
		{
			"name":"Trunk Mesh",
			"primitives":[
				{
					"attributes":{
						"POSITION":4,
						"TEXCOORD_0":5,
						"NORMAL":6
					},
					"indices":7
				}
			]
		}
	],
	"accessors":[
		{
			"bufferView":0,
			"componentType":5126,
			"count":331,
			"max":[
				5.608273506164551,
				10.808921813964844,
				2.817526340484619
			],
			"min":[
				-6.283524513244629,
				-1.6900858879089355,
				-9.829054832458496
			],
			"type":"VEC3"
		},
		{
			"bufferView":1,
			"componentType":5126,
			"count":331,
			"type":"VEC2"
		},
		{
			"bufferView":2,
			"componentType":5126,
			"count":331,
			"type":"VEC3"
		},
		{
			"bufferView":3,
			"componentType":5123,
			"count":1440,
			"type":"SCALAR"
		},
		{
			"bufferView":4,
			"componentType":5126,
			"count":91,
			"max":[
				2.991389751434326,
				12.228758811950684,
				3.6876866817474365
			],
			"min":[
				-2.1520915031433105,
				-0.9631270170211792,
				-3.813035488128662
			],
			"type":"VEC3"
		},
		{
			"bufferView":5,
			"componentType":5126,
			"count":91,
			"type":"VEC2"
		},
		{
			"bufferView":6,
			"componentType":5126,
			"count":91,
			"type":"VEC3"
		},
		{
			"bufferView":7,
			"componentType":5123,
			"count":420,
			"type":"SCALAR"
		}
	],
	"bufferViews":[
		{
			"buffer":0,
			"byteLength":3972,
			"byteOffset":0,
			"target":34962
		},
		{
			"buffer":0,
			"byteLength":2648,
			"byteOffset":3972,
			"target":34962
		},
		{
			"buffer":0,
			"byteLength":3972,
			"byteOffset":6620,
			"target":34962
		},
		{
			"buffer":0,
			"byteLength":2880,
			"byteOffset":10592,
			"target":34963
		},
		{
			"buffer":0,
			"byteLength":1092,
			"byteOffset":13472,
			"target":34962
		},
		{
			"buffer":0,
			"byteLength":728,
			"byteOffset":14564,
			"target":34962
		},
		{
			"buffer":0,
			"byteLength":1092,
			"byteOffset":15292,
			"target":34962
		},
		{
			"buffer":0,
			"byteLength":840,
			"byteOffset":16384,
			"target":34963
		}
	],
	"buffers":[
		{
			"byteLength":17224,
			"uri":"data:application/octet-stream;base64,"
		}
	]
}
